<svg width="205" height="279" viewBox="0 0 205 279" fill="none" xmlns="http://www.w3.org/2000/svg">
<path d="M63.5 279C89.168 279 110 258.168 110 232.5V186H63.5C37.832 186 17 206.832 17 232.5C17 258.168 37.832 279 63.5 279Z" fill="#0ACF83"/>
<path d="M17 139.5C17 113.832 37.832 93 63.5 93H110V186H63.5C37.832 186 17 165.168 17 139.5Z" fill="#A259FF"/>
<path d="M17 46.5C17 20.832 37.832 0 63.5 0H110V93H63.5C37.832 93 17 72.168 17 46.5Z" fill="#F24E1E"/>
<path d="M110 0H156.5C182.168 0 203 20.832 203 46.5C203 72.168 182.168 93 156.5 93H110V0Z" fill="#FF7262"/>
<path d="M203 139.5C203 165.168 182.168 186 156.5 186C130.832 186 110 165.168 110 139.5C110 113.832 130.832 93 156.5 93C182.168 93 203 113.832 203 139.5Z" fill="#1ABCFE"/>
</svg>
