<svg width="109" height="108" viewBox="0 0 109 108" fill="none" xmlns="http://www.w3.org/2000/svg">
<path d="M31.3813 99.1015L25.185 11.1854C25.185 10.6005 25.6751 10.1265 26.2798 10.1265H33.3303C34.0955 10.1265 34.6229 10.8638 34.3563 11.5568L17.0568 41.4091C16.9852 41.5948 16.925 42.3238 16.9651 42.5178L29.2118 99.3093C29.4697 100.565 31.3813 100.382 31.3813 99.1015Z" fill="white"/>
<path d="M79.3417 100.03C77.2867 100.03 75.9741 98.8686 74.9968 97.3885C74.9509 97.3219 74.9137 97.2499 74.8793 97.175L59.0501 62.1339C58.5571 61.0446 56.9464 61.0806 56.5079 62.1921L39.3861 99.3149C39.1826 99.8304 38.6725 100.171 38.1021 100.171H35.8007C35.0412 100.171 34.4279 99.5754 34.4279 98.8437L36.9815 11.5679C36.9815 11.5623 36.9815 11.5595 36.9815 11.554C37.1277 10.0101 36.95 10.1625 37.9101 10.1043C38.2655 10.0822 38.5922 10.0628 38.876 10.3649C39.9049 11.4598 59.288 52.9537 60.4774 55.0436C60.5003 55.0824 60.5175 55.1157 60.5347 55.1545L74.6098 86.4897C75.4926 88.4577 71.0789 48.0975 71.5374 45.9992L71.8527 44.7824C72.0763 43.7651 90.8145 35.131 91.8921 35.131C93.328 35.131 94.4056 36.4004 94.1248 37.7642C94.1248 37.7642 84.6725 88.7099 80.8636 98.9324C80.4308 100.088 79.591 100.03 79.3417 100.03Z" fill="white"/>
<path d="M1.91833 68.3372V1.79169H107.721V106.303H27.9736" stroke="white" stroke-width="2" stroke-miterlimit="10"/>
</svg>
