<svg version="1.1" id="Layer_1" xmlns="http://www.w3.org/2000/svg" xmlns:xlink="http://www.w3.org/1999/xlink" x="0px" y="0px"
	 width="100%" viewBox="0 0 800 800" enable-background="new 0 0 800 800" xml:space="preserve">
<path fill="#000000" opacity="1.000000" stroke="none" 
	d="
M584.097168,243.183990 
	C585.953918,234.906250 588.295532,227.137329 589.402954,218.595932 
	C580.793030,219.736145 573.052429,222.243118 565.185364,224.107391 
	C558.203796,225.761841 557.537964,225.667526 552.979309,218.617615 
	C557.748962,217.371384 562.263550,216.092789 566.827087,215.022858 
	C573.467102,213.466125 580.142456,212.060501 586.802429,210.588806 
	C589.627258,209.964584 591.308838,208.660583 591.886658,205.392639 
	C593.564697,195.901703 595.713928,186.494171 597.670654,177.052322 
	C597.871338,176.083755 597.872742,175.027542 598.977295,174.537903 
	C605.214294,177.585236 606.186707,179.505707 604.834167,185.633240 
	C603.364624,192.291443 601.976624,198.967819 600.598022,205.645554 
	C600.509888,206.072632 600.809692,206.579788 601.056519,207.551422 
	C606.882141,207.559082 612.290100,205.224960 617.917542,204.243332 
	C619.714600,203.929855 621.444397,203.248169 623.232056,202.860001 
	C628.861511,201.637604 630.779968,202.702332 633.747070,209.003723 
	C624.432861,211.125732 615.300720,213.549057 606.029480,215.183624 
	C600.871460,216.093018 598.214905,218.099350 597.379822,223.484482 
	C596.036865,232.144791 593.957764,240.690948 591.939331,250.502350 
	C600.733154,247.448868 608.519043,244.784698 616.277100,242.041992 
	C626.796448,238.323074 637.312622,234.593399 647.791321,230.762192 
	C651.175964,229.524689 653.613586,229.764847 654.609497,234.188370 
	C649.346924,237.365021 643.292542,238.652237 637.606873,240.746002 
	C622.456543,246.325119 607.169556,251.532135 591.997314,257.053131 
	C588.061462,258.485321 586.239502,257.441437 585.147949,253.449356 
	C584.248962,250.161530 582.516296,247.098343 584.097168,243.183990 
z"/>
<path fill="#000000" opacity="1.000000" stroke="none" 
	d="
M584.287048,538.313049 
	C576.997681,547.527039 578.916260,556.111206 589.155029,560.077209 
	C589.889954,556.535767 590.059021,552.913574 591.954590,549.672424 
	C597.337952,540.467896 606.022705,537.041931 616.133301,540.411438 
	C624.350708,543.150024 630.894104,548.243591 635.375854,555.514221 
	C643.113708,568.067078 636.944153,581.572144 621.805481,585.951965 
	C620.953491,587.072754 621.978882,587.808350 622.463440,588.549988 
	C624.165710,591.154968 622.127747,592.523621 620.713684,594.068848 
	C618.940918,596.005981 617.430664,594.693665 615.958008,593.556946 
	C603.969971,584.304443 591.848145,575.218384 580.041382,565.739929 
	C568.556213,556.519714 567.635010,546.666626 576.828003,535.080994 
	C579.194275,532.098755 581.864014,529.298584 584.707642,526.766663 
	C589.690125,522.330261 590.770020,522.532471 596.137634,528.207092 
	C592.120056,531.336365 587.619751,533.930542 584.287048,538.313049 
M596.206726,562.092102 
	C598.541260,570.738159 605.666992,574.617432 612.784607,578.227051 
	C618.307800,581.028137 622.921326,579.571045 626.902771,574.688904 
	C630.572083,570.189453 630.800171,565.423950 627.403198,560.463196 
	C624.429749,556.120911 620.367126,552.942688 615.813171,550.416504 
	C605.870361,544.901184 597.064270,549.796265 596.206726,562.092102 
z"/>
<path fill="#000000" opacity="1.000000" stroke="none" 
	d="
M119.019455,333.004669 
	C133.003357,317.745422 170.257294,326.054993 173.943161,348.654846 
	C175.401871,357.598816 173.895874,366.210358 172.017593,374.795288 
	C169.813202,384.870697 172.391327,384.767609 160.488113,382.378174 
	C144.058701,379.080170 127.625267,375.790619 111.141182,372.784637 
	C107.022568,372.033569 105.863922,370.281708 106.739174,366.416199 
	C108.057640,360.593292 109.063667,354.698486 110.432373,348.888397 
	C111.824333,342.979584 114.361588,337.600311 119.019455,333.004669 
M166.045868,359.442841 
	C166.998657,344.019684 156.881149,337.014038 142.566162,335.328186 
	C133.245773,334.230499 125.334305,336.424347 120.603088,345.443604 
	C118.077637,350.257935 117.394165,355.571259 116.406891,360.793213 
	C115.865913,363.654572 117.650970,364.368958 120.147728,364.834839 
	C130.773178,366.817413 141.353439,369.040649 151.963638,371.106934 
	C164.844345,373.615295 164.850204,373.585205 166.045868,359.442841 
z"/>
<path fill="#000000" opacity="1.000000" stroke="none" 
	d="
M641.674133,389.137268 
	C641.500244,376.862091 641.501648,376.951324 653.289551,376.766785 
	C669.743469,376.509247 686.209473,377.234985 702.651733,376.190155 
	C705.659607,375.999023 706.957336,377.390045 706.992371,380.242218 
	C707.100403,389.035248 708.128296,397.888000 706.139709,406.578033 
	C703.273071,419.104340 695.274048,426.579895 682.670227,428.639893 
	C665.581604,431.432861 650.124573,426.692352 644.258728,410.730896 
	C642.705750,406.505096 641.768005,402.125549 641.715881,397.594788 
	C641.685303,394.934631 641.688049,392.274078 641.674133,389.137268 
M687.031311,385.701111 
	C676.056274,385.901672 665.081360,386.112274 654.106018,386.294434 
	C651.874573,386.331482 649.608582,386.168274 649.574097,389.406281 
	C649.427490,403.176697 651.815125,417.673187 670.543701,419.366272 
	C686.921814,420.846863 699.031189,414.888855 698.715027,395.375885 
	C698.543335,384.780640 700.521179,385.026672 687.031311,385.701111 
z"/>
<path fill="#000000" opacity="1.000000" stroke="none" 
	d="
M328.274109,188.846786 
	C329.514069,193.052444 330.640839,196.880402 331.869965,200.675232 
	C333.001740,204.169464 330.746796,204.896576 328.156586,205.748840 
	C325.352295,206.671539 323.772980,206.008194 322.904816,203.124908 
	C316.865356,183.067429 310.776154,163.024887 304.671265,142.987198 
	C304.044464,140.929886 303.606842,139.229156 306.273315,138.147018 
	C309.395813,136.879837 311.828735,136.917068 313.101501,141.504181 
	C317.992432,133.824585 324.258667,130.390823 332.599457,130.546799 
	C338.991669,130.666351 343.847473,133.346100 347.414917,138.356567 
	C353.160095,146.425613 355.310547,155.567093 354.166595,165.332764 
	C352.968597,175.560013 341.447266,183.084686 330.655029,181.015961 
	C329.381012,180.771774 328.195770,179.938797 326.477570,180.544220 
	C325.745514,183.378891 327.981628,185.741592 328.274109,188.846786 
M320.581879,162.805954 
	C321.757751,165.370346 322.934875,167.917969 324.750519,170.136307 
	C327.926849,174.017166 332.052399,174.464783 336.491333,173.342972 
	C340.885193,172.232559 343.870880,169.405457 344.565735,164.847931 
	C345.774506,156.919769 343.755585,149.640564 339.044769,143.241791 
	C335.784485,138.813248 330.031830,137.711578 324.655182,139.990372 
	C319.479523,142.183975 317.279236,146.081558 317.873444,151.955688 
	C318.226318,155.444031 319.108612,158.800491 320.581879,162.805954 
z"/>
<path fill="#000000" opacity="1.000000" stroke="none" 
	d="
M127.193840,420.937408 
	C139.676270,419.405792 151.711960,417.936615 163.746399,416.457275 
	C165.940567,416.187561 168.490204,414.706787 169.756180,417.887695 
	C170.999710,421.012268 169.924515,423.362701 166.379547,424.809326 
	C169.453430,428.828949 172.645004,432.419189 173.309998,437.421265 
	C174.812515,448.723175 170.657288,456.118286 159.984207,460.112671 
	C153.191971,462.654663 146.147736,463.689453 138.907990,462.249115 
	C125.835709,459.648376 118.913330,446.536987 124.153305,434.301666 
	C124.607086,433.242096 125.153458,432.222168 126.018646,430.437408 
	C119.484383,431.351898 113.520546,432.115936 107.582329,433.043976 
	C104.015526,433.601440 101.473343,433.271881 100.912636,428.807251 
	C100.318634,424.077576 103.586937,424.178009 106.489784,423.756989 
	C113.233688,422.778870 119.993378,421.909668 127.193840,420.937408 
M130.287506,442.162415 
	C130.699677,447.362396 133.312637,451.218781 138.362885,452.293060 
	C145.252991,453.758728 152.257477,453.602020 158.816330,450.443390 
	C164.435791,447.737091 166.782364,442.774780 165.436783,436.895325 
	C164.004120,430.635345 160.314774,427.657166 153.884003,427.263428 
	C148.652390,426.943085 143.641617,427.858398 138.733032,429.506256 
	C132.637421,431.552673 130.473297,434.625702 130.287506,442.162415 
z"/>
<path fill="#000000" opacity="1.000000" stroke="none" 
	d="
M553.827271,195.836090 
	C560.935608,184.352219 567.951599,173.231216 574.673401,161.935135 
	C576.662720,158.592041 578.352478,158.054413 581.779907,160.045471 
	C585.455811,162.180893 584.516174,164.151276 582.815125,166.870514 
	C576.373474,177.168243 570.153687,187.605515 563.658630,197.868896 
	C557.373779,207.800156 548.970581,211.875473 539.448914,209.981354 
	C527.666931,207.637604 518.023438,198.697647 516.128540,188.115906 
	C515.076111,182.238678 517.057068,176.874893 519.985413,171.963333 
	C526.376465,161.243790 533.103455,150.724365 539.481201,139.997177 
	C541.492065,136.614944 543.219116,136.330048 546.607605,138.346024 
	C550.301331,140.543549 549.289062,142.452301 547.610168,145.137268 
	C541.258423,155.295013 534.909668,165.457764 528.771973,175.745224 
	C522.525085,186.215530 524.515686,193.534576 534.891052,199.441254 
	C541.886230,203.423569 547.424194,202.445206 553.827271,195.836090 
z"/>
<path fill="#000000" opacity="1.000000" stroke="none" 
	d="
M631.935425,260.867432 
	C640.845886,256.282257 649.483643,251.973907 657.963074,247.373581 
	C661.294861,245.565964 662.882812,246.378738 664.513855,249.594101 
	C666.105164,252.731354 665.526917,254.204163 662.416260,255.759094 
	C651.262878,261.334320 640.283020,267.255402 629.163269,272.899414 
	C614.474792,280.354889 619.122253,293.531921 627.803528,301.284668 
	C632.472595,305.454315 638.146240,304.210388 643.301331,301.618622 
	C654.447571,296.014801 665.626587,290.456421 676.553894,284.446350 
	C680.904114,282.053741 682.441223,283.878784 683.949646,287.421173 
	C684.825500,289.478119 684.547180,290.844330 682.463745,291.898865 
	C669.851990,298.282440 657.554016,305.388306 644.592773,310.951721 
	C630.213928,317.123596 616.337891,308.210907 611.840942,291.104706 
	C609.356934,281.655640 612.260437,273.126617 620.342346,267.437347 
	C623.857056,264.963135 627.832947,263.143982 631.935425,260.867432 
z"/>
<path fill="#000000" opacity="1.000000" stroke="none" 
	d="
M175.753632,280.935974 
	C178.651367,282.644562 177.251404,284.481720 176.465958,286.275787 
	C172.800598,294.647949 169.136383,303.020630 165.490372,311.350647 
	C172.505264,315.258514 178.977936,314.095947 182.940796,308.421143 
	C186.766235,302.943146 187.983109,296.615692 188.151825,290.132416 
	C194.819077,290.283264 196.046875,291.601349 195.441666,297.376495 
	C194.000473,311.128967 186.352905,320.479248 174.624649,322.828400 
	C162.699493,325.216980 145.766464,314.409210 143.044876,302.672089 
	C139.531677,287.521057 153.410294,274.078400 168.413635,278.165802 
	C170.808853,278.818329 173.088760,279.894073 175.753632,280.935974 
M159.439987,305.784271 
	C161.484680,301.072937 163.486786,296.342468 165.587280,291.656158 
	C167.328186,287.772064 165.417038,286.575653 161.915710,286.342529 
	C156.562241,285.986053 152.862076,288.798248 151.110031,294.627747 
	C149.807526,298.961548 151.923126,304.513336 155.670807,306.813629 
	C156.996338,307.627228 158.102814,307.820831 159.439987,305.784271 
z"/>
<path fill="#000000" opacity="1.000000" stroke="none" 
	d="
M189.064850,545.788818 
	C190.828644,548.351990 192.289597,547.237305 193.800858,545.959961 
	C198.427155,542.049683 199.905045,536.241943 197.477081,530.606384 
	C195.676270,526.426514 192.927017,522.877319 189.606400,519.762390 
	C188.429749,518.658630 186.772522,517.960266 186.368942,516.174805 
	C190.751831,511.430939 192.146133,511.324066 196.431534,515.471497 
	C197.746689,516.744263 199.040787,518.053833 200.213943,519.455872 
	C207.941055,528.690430 209.397507,539.552979 204.101837,548.094299 
	C198.067688,557.826721 183.182587,564.391724 172.952545,561.832581 
	C164.247894,559.655029 157.412598,550.967712 157.040009,541.608582 
	C156.739929,534.070923 163.880890,524.291321 171.416672,521.557922 
	C173.909622,520.653687 174.720413,522.098816 175.691315,523.704590 
	C180.085464,530.972412 184.478897,538.240784 189.064850,545.788818 
M179.663605,553.605164 
	C180.905472,553.218933 182.297684,553.084961 183.168350,551.210754 
	C179.528198,545.316895 176.374069,538.818909 171.817108,533.224182 
	C166.391983,536.519470 164.448151,540.408081 165.705505,544.839417 
	C167.432007,550.924133 171.688705,553.778809 179.663605,553.605164 
z"/>
<path fill="#000000" opacity="1.000000" stroke="none" 
	d="
M553.633057,643.185181 
	C551.049622,652.558594 542.422668,659.523987 533.570007,659.689941 
	C525.029480,659.850037 515.930481,653.133545 512.974243,644.740662 
	C512.069519,642.172119 513.664917,641.511230 515.284790,640.617615 
	C522.129578,636.842041 528.984497,633.084595 535.813843,629.281250 
	C540.409729,626.721802 540.570679,625.123230 536.690674,621.566895 
	C532.167664,617.421204 526.027222,616.955200 520.009521,620.194336 
	C515.571228,622.583374 512.131165,626.192383 508.722412,629.703369 
	C503.648926,625.695312 503.490540,623.771606 507.586304,619.618042 
	C511.514435,615.634399 516.199646,612.789917 521.416321,610.918030 
	C530.909668,607.511597 540.738831,610.439087 546.742615,618.601501 
	C552.001587,625.751221 555.326599,633.589661 553.633057,643.185181 
M544.886780,636.056030 
	C544.569153,634.858826 544.038452,633.494995 542.577026,634.253479 
	C536.468506,637.423462 530.278381,640.484863 524.655701,644.404175 
	C528.103699,650.833435 532.169800,652.787659 537.369019,650.911133 
	C543.687744,648.630554 546.342590,643.760864 544.886780,636.056030 
z"/>
<path fill="#000000" opacity="1.000000" stroke="none" 
	d="
M636.422241,452.763794 
	C642.147583,437.795990 655.900452,433.203033 672.636475,440.332184 
	C682.435486,444.506348 687.198914,451.834442 686.252441,462.346497 
	C684.762634,478.893799 669.731262,483.753540 657.229492,479.564331 
	C654.671326,478.707092 655.184021,477.007202 655.565186,475.161163 
	C657.110718,467.675995 658.608154,460.180908 660.157776,452.696594 
	C661.335266,447.009766 659.984314,445.748901 654.282593,446.845154 
	C648.100708,448.033630 644.703918,451.897064 643.404053,457.759888 
	C642.577881,461.485992 641.933411,465.256683 642.641174,469.146301 
	C642.956055,470.876923 644.389771,473.684296 641.226501,473.898834 
	C638.625977,474.075165 635.190247,473.903168 634.847168,469.932068 
	C634.357910,464.268341 634.386108,458.618652 636.422241,452.763794 
M667.367615,454.883728 
	C666.574341,458.959045 665.956299,463.078796 664.938354,467.097198 
	C663.920593,471.114716 666.005615,471.820465 669.185486,471.620178 
	C674.732544,471.270721 678.599365,466.810394 678.684875,460.734222 
	C678.770386,454.657410 674.889282,450.319122 668.815613,449.902954 
	C668.380737,451.269806 667.931702,452.680969 667.367615,454.883728 
z"/>
<path fill="#000000" opacity="1.000000" stroke="none" 
	d="
M221.354935,225.352234 
	C219.334366,227.755997 216.740356,229.213501 215.619843,231.891251 
	C220.586670,238.494339 227.833755,239.318848 234.254364,234.074173 
	C236.594345,232.162735 238.584915,229.913116 240.207504,227.379944 
	C241.715988,225.024902 243.048767,222.557312 244.436417,220.177811 
	C250.399933,222.857788 250.979507,224.474319 248.204391,229.662689 
	C245.806610,234.145630 242.479675,237.870575 238.579483,241.029083 
	C230.704834,247.406250 221.580048,248.197723 213.056961,242.719284 
	C205.158981,237.642654 198.863159,231.053970 197.631287,221.107498 
	C196.402603,211.187012 202.021652,202.232712 211.477081,198.764664 
	C219.724243,195.739761 230.617844,199.502426 235.886124,206.977722 
	C237.399261,209.124802 236.335220,210.278152 234.976990,211.641342 
	C230.512695,216.121857 226.065903,220.619797 221.354935,225.352234 
M205.597290,218.899292 
	C206.555939,221.303223 206.856384,224.129959 210.083832,225.578278 
	C215.445358,220.902145 220.475403,215.815475 225.318237,210.367630 
	C221.294403,206.724258 217.451035,204.843109 212.907593,206.802109 
	C208.072876,208.886673 205.417999,212.712204 205.597290,218.899292 
z"/>
<path fill="#000000" opacity="1.000000" stroke="none" 
	d="
M373.515228,158.439468 
	C379.774048,166.126282 387.308350,164.035248 394.829803,162.038116 
	C397.024872,161.455261 398.929565,159.780441 401.385498,160.198181 
	C403.352051,166.264908 402.949951,167.172989 397.603088,169.364319 
	C392.574951,171.425034 387.264893,172.231064 381.956604,171.804184 
	C369.546417,170.806168 361.840240,162.545303 360.787659,149.371536 
	C360.444489,145.076752 360.461853,140.759537 361.629059,136.480896 
	C364.276245,126.777260 373.079224,120.327499 383.338501,120.818474 
	C392.886108,121.275375 400.302155,128.007324 402.092102,137.897873 
	C402.387970,139.532791 402.416901,141.215591 402.704407,142.852524 
	C403.193481,145.636719 401.917419,146.924377 399.275787,147.170334 
	C391.661865,147.879257 384.055481,148.689438 376.431213,149.260941 
	C370.047211,149.739456 369.705994,150.119690 372.146667,155.933167 
	C372.467163,156.696533 372.920258,157.404236 373.515228,158.439468 
M381.780945,141.037460 
	C383.938416,140.908493 386.095490,140.773224 388.253418,140.651947 
	C391.680115,140.459366 393.073425,139.159103 391.624329,135.533798 
	C389.886566,131.186264 386.879639,128.526352 382.271484,128.602127 
	C377.367615,128.682785 373.230103,130.603043 371.180969,135.602020 
	C369.201569,140.430832 370.174835,141.911682 375.437500,141.706680 
	C377.259521,141.635712 379.074188,141.376648 381.780945,141.037460 
z"/>
<path fill="#000000" opacity="1.000000" stroke="none" 
	d="
M266.678253,655.421875 
	C258.386047,648.857788 255.735870,640.579407 258.507324,630.783020 
	C259.892639,625.886353 262.336700,621.562866 265.575775,617.692017 
	C273.105621,608.693420 283.272919,606.728577 293.774872,612.170349 
	C303.730286,617.328796 307.988800,627.159485 304.915131,638.258911 
	C303.476044,643.455688 300.927917,648.154846 297.435364,652.264526 
	C289.405670,661.712830 278.327301,662.900391 266.678253,655.421875 
M291.511047,619.876404 
	C286.942932,617.159729 282.290131,615.873596 277.527893,619.361511 
	C270.802979,624.286865 267.281921,631.186584 266.525208,639.266174 
	C266.069458,644.132935 268.953033,647.775208 273.198120,650.144104 
	C277.379547,652.477539 281.704407,653.388245 285.834717,650.206787 
	C292.057709,645.413574 295.596924,638.945618 296.675262,631.213867 
	C297.292786,626.786255 295.963989,622.971069 291.511047,619.876404 
z"/>
<path fill="#000000" opacity="1.000000" stroke="none" 
	d="
M296.186493,159.842743 
	C300.981140,166.007675 304.325195,172.310730 304.554291,180.055862 
	C304.826843,189.270126 300.560364,195.556824 292.793549,199.863556 
	C284.804443,204.293564 276.777252,204.501999 269.362915,198.941467 
	C260.737244,192.472427 256.096680,183.494873 256.270630,172.722610 
	C256.413422,163.879349 261.728149,158.087784 269.595428,154.420593 
	C277.335297,150.812775 284.723999,151.173889 291.789520,156.011780 
	C293.286469,157.036758 294.568909,158.375061 296.186493,159.842743 
M290.859222,168.665176 
	C289.498993,166.988739 288.311890,165.125885 286.745667,163.671280 
	C282.266296,159.511108 277.043823,159.108505 271.583527,162.258896 
	C266.372498,165.265472 264.115051,169.834778 265.554108,175.743210 
	C266.906372,181.295288 269.421875,186.391769 273.499542,190.537704 
	C278.317413,195.436188 283.326630,196.121048 289.320679,192.820221 
	C294.811707,189.796417 296.774445,184.954926 295.203705,178.402618 
	C294.417969,175.124817 292.975342,172.140518 290.859222,168.665176 
z"/>
<path fill="#000000" opacity="1.000000" stroke="none" 
	d="
M589.844849,624.842163 
	C579.126343,633.730164 571.738892,633.174622 562.982971,623.045227 
	C557.644165,616.868896 552.330383,610.670471 547.049133,604.444824 
	C542.049500,598.551208 542.233276,597.840088 550.015808,593.846313 
	C555.194336,599.885742 560.484863,606.052673 565.771240,612.223206 
	C567.071899,613.741394 568.311890,615.314270 569.660767,616.787842 
	C574.690002,622.281982 578.754211,623.123169 583.542908,619.719055 
	C589.909668,615.193176 591.554443,609.695618 588.006104,603.311707 
	C583.432068,595.082214 576.435425,588.716003 570.504456,581.538147 
	C568.134033,578.669434 568.128113,577.048340 571.021057,574.662415 
	C573.803406,572.367737 575.427246,572.837585 577.577576,575.413940 
	C585.903625,585.389648 594.439697,595.190063 602.783386,605.151367 
	C604.097473,606.720276 607.088623,608.118774 604.788147,610.936340 
	C602.688171,613.508301 600.213257,615.041077 596.906067,611.606873 
	C595.310364,616.691223 593.703308,621.205261 589.844849,624.842163 
z"/>
<path fill="#000000" opacity="1.000000" stroke="none" 
	d="
M229.082443,619.175903 
	C235.259064,621.063293 239.533188,618.223145 243.137024,614.284973 
	C248.529053,608.392639 253.730499,602.317505 258.818787,596.159668 
	C260.895294,593.646667 262.492126,592.786743 265.267029,595.325256 
	C267.804260,597.646423 268.533417,599.211609 265.891785,602.194092 
	C257.509705,611.657715 249.531158,621.477722 241.233871,631.018372 
	C239.693115,632.790100 238.703247,636.515015 235.178986,634.741821 
	C232.000931,633.142822 230.420776,630.494263 233.667709,626.556274 
	C225.417709,626.574341 219.439224,623.769226 214.809494,618.230225 
	C209.778870,612.211609 208.945694,605.694153 213.667923,599.457031 
	C220.390244,590.578247 227.793900,582.211426 234.996063,573.701660 
	C237.582031,570.646179 239.365585,573.566345 241.248047,574.889099 
	C243.565475,576.517334 243.346222,578.207520 241.532516,580.268433 
	C235.927185,586.637634 230.402298,593.080261 224.960083,599.589600 
	C217.779495,608.178223 218.850006,613.483826 229.082443,619.175903 
z"/>
<path fill="#000000" opacity="1.000000" stroke="none" 
	d="
M161.983047,479.128998 
	C158.011475,480.534454 154.403290,481.793976 150.818283,483.116333 
	C143.633728,485.766357 141.215591,489.434448 142.803452,495.191650 
	C144.973969,503.061523 149.698868,506.567871 156.925049,505.343628 
	C164.514343,504.057861 171.461655,500.656830 178.746155,498.356049 
	C180.330170,497.855682 181.941116,497.384552 183.442627,496.690125 
	C187.040787,495.026093 188.422440,496.864471 189.552002,499.992279 
	C190.773193,503.373840 189.020905,504.407318 186.332230,505.342529 
	C174.404465,509.491241 162.537949,513.818054 150.579849,517.875793 
	C148.255386,518.664490 145.507950,521.585388 143.164017,517.885132 
	C141.027863,514.512878 142.590805,512.039246 146.151505,510.157654 
	C140.075211,507.214813 136.728271,502.708008 134.913803,496.898743 
	C131.703201,486.619537 134.745895,479.708496 144.738388,475.676941 
	C150.900757,473.190674 157.242615,471.148499 163.508255,468.919281 
	C166.484848,467.860229 169.522705,466.953827 172.439911,465.752716 
	C175.510696,464.488342 177.228806,464.967651 178.401642,468.433716 
	C179.532822,471.776703 178.719696,473.288574 175.498184,474.307373 
	C171.065201,475.709229 166.732559,477.428314 161.983047,479.128998 
z"/>
<path fill="#000000" opacity="1.000000" stroke="none" 
	d="
M378.237091,666.013794 
	C376.256775,677.753845 374.209015,689.041687 372.462921,700.376038 
	C371.920990,703.893677 370.906067,705.296387 367.006714,704.537170 
	C358.034943,702.790344 348.982666,701.442871 339.942627,700.067627 
	C336.583191,699.556580 334.945221,698.352478 335.663055,694.528870 
	C336.398376,690.612061 338.931885,691.438416 341.341095,691.804016 
	C347.587067,692.751770 353.829346,693.738586 360.044647,694.866577 
	C362.761108,695.359497 364.145996,694.467834 364.556885,691.759888 
	C365.205139,687.488159 365.924438,683.226868 366.646912,678.966797 
	C367.241486,675.460999 365.869568,673.762390 362.259277,673.295837 
	C356.656952,672.571655 351.110138,671.427490 345.526245,670.547546 
	C343.006287,670.150391 341.557861,669.284790 342.175690,666.294739 
	C342.758820,663.472534 343.478668,661.765686 347.036560,662.526123 
	C352.558411,663.706177 358.250305,664.100708 363.759979,665.324097 
	C367.547791,666.165222 369.009430,664.743042 369.568146,661.336731 
	C370.536438,655.433289 371.803955,649.568115 372.499969,643.634583 
	C372.943298,639.855408 374.833679,639.427490 377.948273,639.935120 
	C381.274231,640.477234 382.301910,641.934509 381.589874,645.408447 
	C380.222809,652.077637 379.358704,658.849915 378.237091,666.013794 
z"/>
<path fill="#000000" opacity="1.000000" stroke="none" 
	d="
M650.356995,507.357361 
	C648.316956,509.349976 646.620361,511.203064 644.712524,512.804688 
	C639.941101,516.810486 634.763428,517.932861 629.022705,514.771362 
	C623.451965,511.703461 621.862183,506.739685 622.289490,500.849457 
	C622.759460,494.372009 625.189514,488.574646 628.876465,483.296783 
	C632.706787,477.813690 633.970032,477.649719 640.079041,481.864044 
	C638.051758,484.620453 635.967712,487.334839 634.014832,490.140442 
	C631.790405,493.336212 630.296021,496.826416 630.252319,500.812195 
	C630.222839,503.501709 631.035461,505.680664 633.617371,506.985077 
	C636.006165,508.191895 637.901123,507.078827 639.530701,505.641937 
	C642.396790,503.114807 645.062073,500.360687 647.827148,497.718079 
	C650.477600,495.185059 653.065186,492.495056 656.571777,491.179474 
	C665.236084,487.928833 673.568420,494.173157 673.179382,503.828217 
	C672.858704,511.786896 669.360718,518.548157 664.173462,524.481140 
	C662.572571,526.312195 660.941406,526.642273 659.116882,524.728027 
	C657.568176,523.103210 655.963379,521.642212 658.019714,519.239685 
	C661.291992,515.416565 664.051819,511.322693 665.062988,506.213959 
	C665.572266,503.640350 665.236511,501.495544 663.031616,500.058868 
	C660.694824,498.536255 658.520325,499.505371 656.683167,501.180115 
	C654.593567,503.085052 652.625305,505.123169 650.356995,507.357361 
z"/>
<path fill="#000000" opacity="1.000000" stroke="none" 
	d="
M198.112015,245.919922 
	C202.976868,252.899338 207.606995,259.606445 212.329880,266.247620 
	C213.667740,268.128906 214.005005,269.868988 212.344162,271.623474 
	C210.534927,273.534729 210.100555,277.491425 206.320908,276.612000 
	C190.336044,272.892761 174.394669,268.986664 158.447601,265.151337 
	C160.152267,257.786163 161.872559,256.694000 168.239899,258.347870 
	C178.203659,260.935944 188.174332,263.497406 198.141174,266.073578 
	C199.082565,266.316895 200.019730,266.867554 201.348465,265.716949 
	C195.884857,258.112701 190.393860,250.469696 184.902039,242.827286 
	C183.834335,241.341492 182.741272,239.873398 181.697983,238.370712 
	C177.968170,232.998657 178.241547,231.605270 184.513306,226.612549 
	C188.989822,232.963608 193.451126,239.293121 198.112015,245.919922 
z"/>
<path fill="#000000" opacity="1.000000" stroke="none" 
	d="
M639.857178,330.362732 
	C653.266235,326.343536 666.328491,322.451843 679.372131,318.498383 
	C682.880127,317.435059 686.702148,316.611725 685.525452,311.323364 
	C685.106201,309.439178 686.348633,308.246155 688.252686,307.794647 
	C690.427063,307.279053 691.278748,308.537018 691.811951,310.296600 
	C693.498840,315.863220 695.186218,321.429718 696.869507,326.997437 
	C697.390625,328.721313 697.549011,330.359009 695.399231,331.085327 
	C693.746216,331.643799 691.794739,331.969116 691.050232,330.014099 
	C689.062195,324.794067 685.586487,326.177734 681.774475,327.373199 
	C669.408936,331.250977 657.012329,335.035431 644.572632,338.667114 
	C641.534424,339.554108 639.983643,340.955383 640.345032,344.233643 
	C640.586609,346.425079 639.951782,348.184662 637.388794,348.614655 
	C634.682007,349.068787 634.450012,346.891205 633.933105,345.264038 
	C632.323486,340.196106 630.886658,335.073578 629.338928,329.985596 
	C628.783142,328.158356 628.183289,326.449615 630.582947,325.388336 
	C632.917847,324.355713 634.323669,325.328064 635.557495,327.239655 
	C636.504822,328.707336 637.100586,330.730042 639.857178,330.362732 
z"/>
<path fill="#000000" opacity="1.000000" stroke="none" 
	d="
M201.585541,588.452393 
	C199.598038,590.052124 199.244751,591.504456 200.843155,593.305786 
	C201.837967,594.426941 202.752350,595.725830 201.390762,597.263062 
	C200.089813,598.731873 198.415283,599.049622 196.907883,598.009338 
	C193.104858,595.384705 189.638580,596.956238 186.120117,598.527771 
	C184.025848,599.463318 182.048340,600.104919 180.466217,597.619751 
	C178.863647,595.102417 180.743301,593.786621 182.338852,592.775574 
	C186.991806,589.826965 186.714218,586.827820 182.908615,583.435120 
	C182.052277,582.671692 181.507996,581.567688 180.692459,580.747253 
	C178.676575,578.719482 179.110779,577.115112 181.159409,575.347595 
	C183.395584,573.418274 184.868256,574.225769 186.604691,576.065857 
	C193.310715,583.172241 193.362289,583.153320 200.828522,577.039551 
	C204.557098,573.986450 208.234894,570.870972 211.917969,567.762695 
	C218.488937,562.217285 218.616440,559.210510 212.586945,553.110413 
	C212.021225,552.538025 211.516922,551.905029 211.021973,551.343201 
	C214.418823,546.020325 215.927231,545.773499 220.239197,549.673767 
	C228.091141,556.776001 228.300903,565.207520 220.427139,572.403320 
	C214.423706,577.889832 208.047791,582.968750 201.585541,588.452393 
z"/>
<path fill="#000000" opacity="1.000000" stroke="none" 
	d="
M231.342148,183.632736 
	C227.398315,178.459213 223.758362,173.501831 219.907623,168.713928 
	C217.962296,166.295181 218.360291,164.720490 220.779297,163.015976 
	C223.077393,161.396667 224.963287,159.720169 227.406219,162.963516 
	C239.797211,179.414444 252.265686,195.807327 264.778778,212.165680 
	C266.959717,215.016815 265.471313,216.549088 263.316711,218.287201 
	C260.947174,220.198669 259.162628,220.388123 257.137665,217.677475 
	C248.688370,206.367126 240.097717,195.162399 231.342148,183.632736 
z"/>
<path fill="#000000" opacity="1.000000" stroke="none" 
	d="
M327.646729,646.791504 
	C329.135620,642.313354 330.637878,638.249329 331.858551,634.102417 
	C332.894562,630.582703 334.953369,630.487122 337.986420,631.415833 
	C341.133850,632.379517 341.741852,633.844910 340.669250,636.939270 
	C336.201599,649.828491 331.956635,662.794922 327.628174,675.732422 
	C326.970032,677.699646 326.328186,679.660217 323.522278,678.815735 
	C321.208618,678.119446 318.870911,677.529846 319.643188,674.215332 
	C319.866211,673.258301 319.872253,672.250671 320.042206,670.664734 
	C317.472839,671.665771 315.245331,672.504517 313.040466,673.399048 
	C309.343781,674.898926 305.834625,673.854553 302.362457,672.609131 
	C299.936157,671.738953 298.180603,670.503479 299.705353,667.443359 
	C300.914978,665.015564 301.916229,663.363770 305.341949,664.510132 
	C314.548126,667.590637 320.848267,664.536011 324.526947,655.633179 
	C325.669067,652.869202 326.541870,649.993958 327.646729,646.791504 
z"/>
<path fill="#000000" opacity="1.000000" stroke="none" 
	d="
M484.535461,672.471069 
	C494.261139,669.103271 497.863617,662.224060 494.860382,652.800537 
	C492.687592,645.982727 490.287933,639.232727 487.809814,632.518860 
	C486.666962,629.422546 486.549011,627.367615 490.321960,625.962708 
	C493.947876,624.612610 495.342621,625.699341 496.482208,629.077637 
	C500.685364,641.537781 505.108795,653.923523 509.450165,666.336975 
	C510.285645,668.725830 511.396240,670.930115 507.836182,672.445740 
	C504.312866,673.945679 502.956757,672.251221 501.810791,669.484497 
	C501.637970,669.067322 501.231720,668.746887 500.498688,667.849304 
	C497.808899,673.927124 494.199921,678.764709 487.607025,680.231018 
	C486.035370,680.580566 483.856537,681.553650 483.345032,679.340027 
	C482.849884,677.197266 480.124359,674.326599 484.535461,672.471069 
z"/>
<path fill="#000000" opacity="1.000000" stroke="none" 
	d="
M414.674652,129.873047 
	C414.716736,128.073807 414.709717,126.739594 414.805573,125.412804 
	C414.980347,122.992577 415.216705,120.663391 418.619232,120.786163 
	C421.627594,120.894714 423.327148,122.125427 423.256409,125.312683 
	C423.241974,125.961479 423.394012,126.613976 423.478180,127.341713 
	C425.526093,127.395035 426.316010,125.652046 427.618713,124.789894 
	C431.497864,122.222565 435.535217,120.734077 440.323334,121.590126 
	C443.105164,122.087471 444.649139,123.043289 443.939240,126.164276 
	C443.320312,128.885498 442.437469,130.594025 438.945557,130.058472 
	C431.205048,128.871338 424.902924,133.432922 423.391113,141.264481 
	C421.876892,149.108902 421.714905,157.113785 421.322571,165.073532 
	C421.163025,168.310486 420.555634,170.499847 416.534637,170.344376 
	C412.855530,170.202148 411.601196,168.871216 411.946228,165.121628 
	C413.011688,153.542664 413.785095,141.936813 414.674652,129.873047 
z"/>
<path fill="#000000" opacity="1.000000" stroke="none" 
	d="
M646.915039,545.108337 
	C635.693054,538.852539 624.863831,532.631897 613.861267,526.734802 
	C610.554016,524.962280 610.140259,523.323669 611.809631,520.088257 
	C613.670044,516.482727 615.629272,516.941895 618.562439,518.615173 
	C629.548279,524.882080 640.674255,530.903503 651.662231,537.166931 
	C654.069885,538.539368 658.144165,538.967468 655.651184,543.893188 
	C653.193420,548.749573 650.428101,547.226562 646.915039,545.108337 
z"/>
<path fill="#000000" opacity="1.000000" stroke="none" 
	d="
M479.480865,173.590363 
	C478.352112,177.742691 478.098419,181.985001 471.888397,179.661987 
	C468.157196,178.266235 467.127808,176.662659 468.641602,173.173828 
	C469.447083,171.317352 469.461060,168.231644 472.392578,168.968094 
	C475.029907,169.630661 479.117401,168.624771 479.480865,173.590363 
z"/>
<path fill="#000000" opacity="1.000000" stroke="none" 
	d="
M440.558777,641.018188 
	C441.070160,644.926758 443.263824,649.284241 437.102234,650.038147 
	C435.209198,650.269775 432.804962,651.169678 431.568054,649.246826 
	C430.131012,647.012756 429.508636,643.492004 430.795471,641.725220 
	C433.097443,638.564758 436.926392,638.840820 440.558777,641.018188 
z"/>
<path fill="#000000" opacity="1.000000" stroke="none" 
	d="
M664.302185,545.151123 
	C665.793335,545.212463 667.028870,545.147461 667.995117,545.626099 
	C671.323792,547.274902 672.641968,549.981567 670.642334,553.307617 
	C668.936829,556.144226 666.138550,556.587952 663.369812,554.781372 
	C660.156677,552.684937 659.859375,549.814758 661.974731,546.725159 
	C662.407471,546.093018 663.262634,545.750122 664.302185,545.151123 
z"/>
</svg>