<svg width="127" height="169" viewBox="0 0 127 169" fill="none" xmlns="http://www.w3.org/2000/svg">
<g clip-path="url(#clip0_1_3)">
<path d="M120.03 101.04C111.56 103.08 110.14 89.29 105.52 94.59C103.54 98.61 101.95 102.9 99.76 106.78C98.81 107.85 96.91 105.75 96.24 105.08C93.69 103.41 93.34 97.42 89.44 99.14C86.19 99.51 86.08 104.29 84.9 106.71C79.91 117.22 75.8 96.53 70.66 95.41C52.38 88.96 58.27 106.3 50.66 113.82C44.99 111.71 44.38 94.44 39.02 100.48C37.09 103.88 34.77 107.36 31.55 109.65C24.95 110.47 23.07 100.98 22.04 96.06C17.13 87.72 12.16 112.15 8.05001 97.05C6.39001 94.36 7.86001 88.78 4.00001 88.18C2.74001 88.18 1.38001 89.33 1.50001 90.68C2.23001 98.96 2.95001 107.32 5.13001 115.37C5.33001 119.27 23.85 161.73 26.5 147.05C23.33 136.33 21.74 125.25 21.7 114.09C34.27 114.12 51.66 148.15 52.6 135.01C55.68 124.58 59.63 114.44 64.41 104.68C76.32 141.02 63.5 143.94 88.3 123.35C92.52 120.72 97.31 118.96 100.31 114.77C101.34 124.82 100.54 135.04 98.02 144.81C97.23 147.93 101.97 149.27 102.84 146.14C105.67 138.52 112.24 132.62 115.27 124.92C116.86 120.25 126.68 103.37 120.06 101.06L120.03 101.04Z" fill="#FFEDB7"/>
<path d="M72.01 163.87C69.92 164.04 75.14 158.09 74.88 157.89C79.41 150.47 87.7 139.75 89.82 134.49C88.29 132.43 87.97 135.38 87.3 136.44C82.58 145.2 77.81 154.32 70.89 161.31C71.78 141.04 72.79 132.7 90.96 121.74C92.37 120.79 97.69 117.35 99.33 115.52C99.9 114.89 100.95 115.39 100.81 116.23C100.57 130.02 102.73 147.29 90.72 156.81C85.56 160.54 80.84 163.69 74.52 165.02C74.48 165.03 73.11 163.45 72.01 163.87Z" fill="#F9CBCB"/>
<path d="M61.94 166.48C57.85 165.97 53.99 167.75 52.31 162.84C46.74 144.57 54.5 126.27 63.01 110.29C63.04 110.23 65.97 102.33 65.43 108.15C67.46 120.54 71.52 133.53 72.17 146.01C72.36 152.87 70.17 159.7 67.47 166.06C66.9 167.41 62.99 166.7 61.94 166.48C61.66 156.83 62.08 147.59 63 138.17C63 137.96 59.57 136.34 62.04 135.03C63.19 134.42 63.78 134.48 62.65 134.44C61.55 134.39 62.21 133.78 62.04 135.03C61.84 145.86 61.26 155.62 61.94 166.48Z" fill="#F8D1D0"/>
<path d="M22.87 115.73C35.51 118.57 39.72 130.48 48.96 138.47C49.08 138.66 51.11 140.49 51.07 140.72C50.43 145.54 51.69 159.11 52.52 164.28C45.16 156.65 40.75 146.92 35.09 138.18C33.94 136.33 34.54 135.52 33.29 136.3C32.1 137.03 32.71 136.4 33.83 138.18C39.7 147.28 43.16 155.8 50.06 164.28C45.34 165.86 35.3 159.85 31.54 156.46C23.76 144.02 23.88 129.94 22.86 115.73H22.87Z" fill="#F8CBCB"/>
<path d="M70.75 22.06C70.62 15.31 79.02 15.75 78.76 22.44C78.71 28.02 70.42 28.14 70.75 22.06Z" fill="#EFC5C5"/>
<path d="M58 18.49C58 12.09 66.62 13.48 66.78 18.89C66.6 24.71 57.85 24.49 58 18.49Z" fill="#EFC5C5"/>
<path d="M37.29 22.55C37.19 27.66 28.17 29.34 28.26 23.13C28.02 18 37.36 16.84 37.29 22.55Z" fill="#EFC5C5"/>
<path d="M99.63 24.08C100.01 29.56 92.33 30.55 92.18 25.04C91.82 19.66 99.49 18.47 99.63 24.08Z" fill="#EFC5C5"/>
<path d="M70.99 5.83C70.91 10.97 63.13 12 63.08 6.32C62.92 1.41 70.96 0.700003 70.99 5.83Z" fill="#EFC5C5"/>
<path d="M79.67 13.16C74.4 12.95 75.08 4.33 80.43 4.83C86.26 4.96 84.49 13.31 79.67 13.16Z" fill="#EFC5C5"/>
<path d="M57.37 9.55C57.5 15.05 49.54 14.53 49.57 9.54C49.53 4.76 57.63 4.24 57.37 9.55Z" fill="#EFC5C5"/>
<path d="M43.09 11.19C42.91 15.52 36.38 14.97 36.52 10.75C36.6 6.47 43.27 7.28 43.09 11.19Z" fill="#EFC5C5"/>
<path d="M88.54 18.56C88.56 24.2 79.89 24.63 80.22 18.68C80.24 13.11 88.73 12.88 88.54 18.56Z" fill="#EFC5C5"/>
<path d="M54.66 22.86C54.96 28.43 46.52 28.92 46.5 23.24C46.26 17.61 54.55 17.16 54.66 22.86Z" fill="#EFC5C5"/>
<path d="M92.86 11.04C96.91 10.87 96.96 17.17 92.94 17.14C89.04 17.21 88.95 11.08 92.86 11.04Z" fill="#EFC5C5"/>
<path d="M73.28 155.71L73.35 155.67L73.34 155.76L73.28 155.71Z" fill="#F9CBCB"/>
<path d="M73.28 155.71L73.35 155.67L73.34 155.76L73.28 155.71Z" fill="#F9CBCB"/>
<path d="M70.88 79.05C70.34 81.74 72.49 87.67 68.76 88.19C67.43 88.22 66.48 87.34 66.47 85.73C66.45 81.23 66.5 76.72 66.62 72.22C66.66 70.62 67.54 69.86 68.88 69.92C72.45 70.56 70.35 76.39 70.88 79.05Z" fill="#083737"/>
<path d="M68.7 87.19C65.91 86.32 68.17 75.31 67.62 72.25C67.63 70.38 69.93 70.3 69.88 72.49C69.41 74.76 71.11 87.6 68.7 87.19Z" fill="#083737"/>
<path d="M32.54 68.53C31.69 72.9 30.6 77.54 29.63 81.93C28.88 85.09 24.55 84.25 25.35 80.96C26.94 77.58 26.57 65.76 30.92 65.99C32.08 66.28 32.53 67.11 32.54 68.53Z" fill="#083737"/>
<path d="M27.39 82.92C24.51 82.73 28.69 73.05 28.65 70.84C29.12 69.62 28.87 67.19 30.41 66.92C31.14 66.8 31.77 67.74 31.44 68.93C30.49 71.46 29.6 82.58 27.39 82.92Z" fill="#083737"/>
<path d="M100.5 82.42C100.8 85 97.68 85.92 96.61 83.84C96.01 81.04 92.47 70.25 96.56 69.76C100.57 70.19 99.11 79.37 100.5 82.42Z" fill="#083737"/>
<path d="M98.37 83.99C96.04 82.98 96.15 74.51 95.61 71.87C98.27 67.19 98.47 77.96 98.97 79.45C99.07 80.82 100.37 84.02 98.38 83.99H98.37Z" fill="#083737"/>
<path d="M39.21 83.94C34.75 83.26 38.67 76.92 38.79 74.08C39.35 71.59 43.35 72.36 42.85 74.9C41.75 77.64 42.76 83.29 39.21 83.93V83.94Z" fill="#083737"/>
<path d="M39.25 82.94C36.5 82.4 39.65 76.83 39.77 74.33C40.12 73.01 42.09 73.42 41.88 74.73C41.02 76.75 41.64 81.67 39.25 82.94Z" fill="#083737"/>
<path d="M50.07 83.91C50.98 81.41 50.19 75.18 54 75.64C57.21 77.04 54.44 82.43 54.25 85.13C53.21 87.68 49.9 86.77 50.06 83.92L50.07 83.91Z" fill="#083737"/>
<path d="M52.24 85.62C49.98 86.28 51.89 76.29 53.45 76.56C54.88 76.61 54.53 78.27 54.36 79.15C53.64 81.06 54.41 84.8 52.25 85.62H52.24Z" fill="#083737"/>
<path d="M79.51 78.5C79.2 74.73 83.38 74.06 83.8 77.63C83.91 79.77 85.95 84.15 83.03 84.85C79.89 85.55 79.96 80.23 79.5 78.5H79.51Z" fill="#083737"/>
<path d="M82.54 83.9C80.8 83.88 79.51 76.13 81.7 76.3C82.84 75.99 82.97 79.14 83.21 80.13C83.51 81.31 84.01 84.26 82.54 83.91V83.9Z" fill="#083737"/>
<path d="M112.64 77.8C111.94 79.12 109.71 80.74 108.77 78.75C108.41 76.58 105.73 72.19 109.17 71.5C112.33 71.37 111.63 75.42 112.64 77.8Z" fill="#083737"/>
<path d="M110.22 78.68C108.82 77.58 108.69 74.57 108.51 72.87C111.17 71.21 110.79 75.97 111.54 77.56C111.13 78.05 110.82 78.67 110.21 78.68H110.22Z" fill="#083737"/>
<path d="M15.85 72.72C15.14 74.44 14.91 77.81 12.27 77.07C11.26 76.79 10.63 76.03 10.8 75.02C11.02 73.76 11.41 72.5 11.93 71.34C12.93 69.4 15.95 70.62 15.84 72.72H15.85Z" fill="#083737"/>
<path d="M12.96 76.17C10.64 76.05 12.47 73.02 12.85 71.76C13.36 71.05 14.73 71.29 14.83 72.62C14.25 73.74 14.34 75.88 12.96 76.17Z" fill="#083737"/>
<path d="M24.37 52.58C24.39 57.75 16.42 58.84 16.48 53.05C16.71 48.93 24.46 47.02 24.37 52.58Z" fill="#083737"/>
<path d="M19.98 56.08C15.92 55.56 17.44 50.05 21.11 50.02C25.04 50.27 23.18 56.35 19.98 56.08Z" fill="#083737"/>
<path d="M48.67 61.55C43.66 61.55 43.78 53.4 49.25 53.94C54.5 54.23 53.58 61.51 48.67 61.55Z" fill="#083737"/>
<path d="M48.61 60.55C44.88 60.42 45.23 54.38 49.25 54.94C53.23 55.27 52.22 60.54 48.61 60.55Z" fill="#083737"/>
<path d="M116 53.73C115.87 59.94 106.27 57.5 108.69 52.03C110.09 49.1 116.3 50.14 116 53.73Z" fill="#083737"/>
<path d="M112.23 56.57C109.39 56.74 107.99 51.61 111.24 51.39C115.58 50.7 116.46 55.94 112.23 56.57Z" fill="#083737"/>
<path d="M88.14 57.07C88.19 61.52 80.68 61.96 80.74 57.26C80.58 52.85 88.18 51.75 88.14 57.07Z" fill="#083737"/>
<path d="M84.22 59.69C80.28 59.43 81.49 53.93 85.26 54.42C88.03 54.96 87.51 59.95 84.22 59.69Z" fill="#083737"/>
<path d="M112.35 31.52C110.56 28.97 108.87 26.41 107.2 23.84C100.51 19 100.25 30.62 94.57 28.8C85.78 19.46 83.72 22.85 76.68 31.67C65.18 23.37 65.87 16.24 54.09 30.83C48.94 28.33 43.58 16.83 38.01 24.98C36.43 26.5 35.23 28.82 33.18 29.72C30.58 28.26 28.97 24.83 27.17 22.41C22.6 17.32 18.26 31.56 15.39 34.22C3.12 42.39 54.28 50.13 59.15 49.22C67.38 49.9 125.07 46.76 112.34 31.52H112.35Z" fill="#3FDDE6"/>
<path d="M120.34 51.88C118.74 48.11 118.94 42.68 116.07 39.8C114.91 37.24 111.95 39.34 110.06 39.9C97.97 47.62 87.08 49.15 72.98 49.02C53.71 48.72 30.63 49.19 14.24 38.47C10.33 39.23 10.29 45.28 8.76 48.37C5.96 54.27 10.06 59.48 14.06 63.57C18.86 69.21 24.99 61.63 30.2 60.47C35.73 59.34 40.01 64.8 44.59 67.1C52.58 72.74 58.69 62.03 66.33 61C73.45 63.3 80.35 72.55 88.15 66.85C92.02 64.04 95.44 59.14 100.88 60.74C106.11 61.95 110.25 66.9 115.98 65.73C122.75 64.59 122.44 56.89 120.34 51.88ZM19.97 57.08C14.69 56.66 16.08 49 21.12 49.02C26.36 49.19 24.51 57.4 19.97 57.08ZM48.68 61.55C43.67 61.55 43.79 53.4 49.26 53.94C54.51 54.23 53.59 61.51 48.68 61.55ZM84.21 60.69C78.97 60.44 80.17 52.84 85.31 53.42C89.44 54.01 88.74 61.01 84.21 60.69ZM113.51 57.33C105.64 58.7 107.5 46.75 114.98 51.28C115.97 53.52 116.43 56.28 113.51 57.33Z" fill="#BAEEEE"/>
<path d="M124.9 78.41C124.66 74.81 125.4 58.16 118.74 63.68C117.74 65.71 115.26 65.6 113.35 65.11C107.71 63.77 102.53 60.3 96.65 60.09C86.75 74.47 78.41 66.28 66.56 60.88C60.08 63.82 47.23 76.48 42.28 66.19C29.5 51.95 21 75.2 9.07 59.03C9.13 56.35 4.92 55.37 4.19 58.24C3.11 62.24 2.59 66.5 2.04 70.66C-0.229998 78.2 5.02 79.81 10.91 81.99C34.02 91.57 60.36 97.36 85.48 92.6C94.21 91.6 121.58 86.15 124.9 78.41ZM14.64 76.12C13.85 78.04 10.38 77.09 10.81 75.02C11.27 73.19 11.64 69.6 14.34 70.51C16.89 71.37 15.35 74.39 14.64 76.11V76.12ZM32.09 70.85C31.27 74.55 30.48 78.25 29.63 81.94C28.2 81.68 26.76 81.47 25.32 81.2C26.37 76.51 27.25 71.74 28.6 67.14C29.63 66.78 30.69 66.49 31.75 66.38C32.99 67.36 32.43 69.27 32.09 70.85ZM42.86 74.91C41.75 77.65 42.77 83.3 39.22 83.94C34.76 83.26 38.68 76.92 38.8 74.08C39.18 72.36 41.4 72.08 42.44 73.27C42.44 73.79 42.55 74.32 42.88 74.72C42.88 74.78 42.88 74.84 42.86 74.91ZM55.47 78.57C55.04 80.74 54.86 82.99 54.25 85.12C53.21 87.67 49.9 86.76 50.06 83.9C50.97 81.4 50.18 75.17 53.99 75.63C55.16 75.92 55.72 77.04 55.46 78.57H55.47ZM70.88 85.61C70.87 87.25 70.12 88.16 68.77 88.19C64.13 87.57 67.4 75.95 66.63 72.23C66.67 70.63 67.55 69.87 68.89 69.92C73.04 71.06 70.03 81.84 70.88 85.61ZM83.04 84.85C79.41 85.68 78.09 75.27 81.54 75.3C84.3 74.75 85.95 84.61 83.04 84.85ZM100.49 82.96C99.29 83.39 98.08 83.81 96.87 84.22C95.91 81.8 92.58 69.94 96.57 69.76C100.32 69.84 99.49 80.03 100.49 82.96ZM111.07 79.48C107.79 80.6 108.07 75.24 107.46 73.21C107.35 72.32 108.17 71.62 109.18 71.51C112.34 71.38 111.64 75.43 112.65 77.8C112.19 78.31 111.75 79.12 111.07 79.47V79.48Z" fill="#F85654"/>
<path d="M60.61 168.28C-1.37 164.87 -14.37 75.95 15.02 31.83C40.62 -11.99 94.85 -10.52 116.34 35.98C140.21 81.89 120.01 165.19 60.61 168.27V168.28ZM64.67 108.51C55.96 125.22 47.41 145.57 53.61 163.76C54.39 166.54 57.73 165.89 59.97 166.05C61.03 164.15 59.09 125.27 63.42 134.18C63.2 144.62 62.57 155.28 62.76 165.7C64.56 166.25 66.26 165.95 67.08 163.85C74.75 146.62 68.65 126.79 64.68 108.5L64.67 108.51ZM23 118.17C24.41 138.53 26.81 161.62 49.41 164.27C48.31 161.06 28.27 134.46 33.14 135.05C38.75 140.68 42.24 149.44 47.02 156.06C47.66 156.88 50.45 161.26 51.06 162.21C48.95 154.91 49.5 146.37 49.25 140.63C42.15 130.03 33.14 121.7 22.85 115.73L22.99 118.18L23 118.17ZM89.83 133.04C91.04 133.06 91.26 134.47 90.4 135.54C84.39 144.89 78.54 154.22 72.47 163.47C77.14 164.64 84.55 159.33 89.68 156.23C100.31 149.49 100.72 129.21 99.53 116.96C79.8 130.22 72.33 133.82 72.17 159.34C74 156.7 76.92 152.17 78.64 149.4C82.51 144.26 85.09 137.18 89.83 133.05V133.04ZM2.32 91.36C3.59 114.8 10.6 133.8 23.77 148.82L25.73 148.27C22.21 137.55 19.79 125.01 20.93 113.85C31.18 113.44 43.13 129.51 50.17 136.96C53.36 125.84 58.38 115.61 63.31 105.28C66.74 100.63 67.24 109.74 67.97 111.88C69.87 119.87 71.66 128.15 72.94 136.28C78.84 128.99 85.96 122.94 93.84 117.92C96.72 115.97 102.36 110.68 102.42 117.64C103.14 128.21 101.72 137.03 99.87 146.89C110.75 134.65 117.87 120.29 121.56 102.51C121.11 102.49 120.01 102.22 119.6 102.44C115.09 106.45 110.42 99.38 107.47 96.17C101.75 110.19 101.18 112.09 89.92 100.53C88.34 102.93 87.19 105.56 85.74 108.03C79.41 117.92 72.39 99.58 70.7 95.31C68.95 95.33 65.16 95.3 63.45 95.31C60.86 95.31 60.5 95.71 59.39 98.24C51.28 115.22 52.04 122.93 40.92 101.68C27.95 117.89 26.76 111.53 20.73 95.84C9.17 108.43 8.63001 105.15 4.32001 90.65L2.31 91.38L2.32 91.36ZM6.06001 59.04C4.79001 64.12 4.1 69.49 3.1 74.63C2.7 76.9 3.03001 77.5 5.15001 78.39C28.88 88.35 53.71 95.44 79.71 92.25C94.71 90.69 109.03 86.28 122.26 79.14C125.68 76.46 122.24 67.3 122.39 63.12C113.18 72.4 107.36 64.25 97.95 61.59C92.32 62.33 89.08 70.06 83.09 69.89C76.41 69.68 70.99 59.99 63.63 63.41C42.47 74.55 51.44 71.77 32.64 62.42C18.49 67.28 16.51 72.39 6.64001 57.25L6.04001 59.02L6.06001 59.04ZM32.59 60.03C37.33 59.88 41.18 64.78 45.1 67.16C52.56 70.9 59.17 59.48 66.95 60.25C77.29 60.74 81.41 74.04 91.23 62.25C98.87 54.37 105.69 64.11 113.6 65.1C116.74 64.97 121.02 61.81 121.35 58.37C120.07 51.9 117.99 45.52 115.19 39.2C88.71 55.9 41.42 52.45 13.7 39.85C11.04 43.46 10.03 48.25 8.08 52.36C7.92 56.34 12.11 59.33 13.96 62.83C19.1 69.15 26.61 59.61 32.58 60.04L32.59 60.03ZM14.17 37.21C38.01 49.57 90.51 53.56 114.31 36.63L106.65 23.87C92.5 41.86 91.72 20.42 84.29 27.15C73.92 42.53 70.53 20.88 63.07 26.28C52.75 39.05 52.77 29.98 42.99 24.71C40.08 25.43 38.55 29.14 36.05 31.05C30.46 35.92 26.89 26.06 24.25 22.37L14.17 37.21ZM96.02 21.04C91.95 21 91.47 28.1 95.79 28.05C99.9 28.15 100.29 20.99 96.02 21.04ZM33.03 19.64C28.68 19.39 27.95 26.12 32.38 26.3C36.68 26.4 37.79 19.69 33.03 19.64ZM50.54 19.77C46.56 19.81 46.49 26.37 50.54 26.28C54.68 26.32 54.61 19.64 50.54 19.77ZM74.69 18.18C70.57 18 70.31 25.76 74.69 25.69C79.29 25.75 78.82 18.01 74.69 18.18ZM62.19 15.2C57.89 15.15 58.19 22.23 62.41 22.16C66.96 22.03 66.51 15.27 62.19 15.2ZM84.44 15.42C80.52 15.31 80.08 21.9 84.2 21.95C88.3 22.07 88.7 15.39 84.44 15.42ZM92.87 11.03C88.97 11.05 89.03 17.2 92.94 17.13C96.95 17.19 96.91 10.87 92.87 11.03ZM39.65 7.8C35.33 7.76 35.83 14.35 39.87 14.29C44.17 14.22 43.94 7.71 39.65 7.8ZM53.58 6.31C49.2 6.28 49.21 12.82 53.48 12.93C57.66 13.12 57.81 6.19 53.58 6.31ZM80.16 5.66C75.98 5.49 75.63 12.18 79.83 12.32C83.98 12.37 84.76 5.59 80.16 5.66ZM67.14 2.87C62.91 2.78 62.59 9.55 66.89 9.6C70.94 9.59 71.66 2.84 67.14 2.87Z" fill="#053534"/>
</g>
<defs>
<clipPath id="clip0_1_3">
<rect width="126.13" height="168.28" fill="white"/>
</clipPath>
</defs>
</svg>
