<svg width="66" height="66" viewBox="0 0 66 66" fill="none" xmlns="http://www.w3.org/2000/svg">
<path d="M18.8221 60.5902L15.0739 6.75246C15.0739 6.39431 15.3704 6.10406 15.7362 6.10406H20.001C20.4639 6.10406 20.7829 6.55556 20.6217 6.97991L10.1573 25.2608C10.1139 25.3745 10.0775 25.8209 10.1018 25.9397L17.5097 60.7175C17.6658 61.4864 18.8221 61.3744 18.8221 60.5902Z" fill="black"/>
<path d="M47.8332 61.1588C46.5902 61.1588 45.7962 60.4476 45.205 59.5412C45.1772 59.5005 45.1547 59.4563 45.1339 59.4105L35.5589 37.9521C35.2607 37.2851 34.2863 37.3071 34.0211 37.9878L23.6642 60.7209C23.5411 61.0366 23.2325 61.2454 22.8875 61.2454H21.4954C21.0359 61.2454 20.6649 60.8804 20.6649 60.4323L22.2096 6.98669C22.2096 6.98329 22.2096 6.9816 22.2096 6.9782C22.298 6.03276 22.1906 6.12611 22.7713 6.09047C22.9863 6.07689 23.1839 6.06501 23.3556 6.25002C23.978 6.92049 35.7028 32.3304 36.4222 33.6102C36.4361 33.634 36.4465 33.6543 36.4569 33.6781L44.9709 52.8671C45.5049 54.0722 42.8351 29.3566 43.1124 28.0716L43.3031 27.3265C43.4384 26.7035 54.7731 21.4162 55.4249 21.4162C56.2935 21.4162 56.9454 22.1936 56.7755 23.0287C56.7755 23.0287 51.0578 54.2267 48.7538 60.4866C48.492 61.1945 47.984 61.1588 47.8332 61.1588Z" fill="black"/>
<path d="M1 41.7509V1H65V65H16.7608" stroke="black" stroke-width="2" stroke-miterlimit="10"/>
</svg>
